<svg width="14" height="9" viewBox="0 0 14 9" fill="none" xmlns="http://www.w3.org/2000/svg">
<g id="Component 23">
<path id="eye" d="M13.8293 4.42381C13.8104 4.38129 13.3545 3.36986 12.3409 2.35629C10.9904 1.00575 9.2846 0.291992 7.40708 0.291992C5.52957 0.291992 3.82377 1.00575 2.47323 2.35629C1.45965 3.36986 1.00158 4.3829 0.98489 4.42381C0.960405 4.47888 0.947754 4.53848 0.947754 4.59875C0.947754 4.65902 0.960405 4.71862 0.98489 4.77369C1.00373 4.81621 1.45965 5.8271 2.47323 6.84068C3.82377 8.19068 5.52957 8.90443 7.40708 8.90443C9.2846 8.90443 10.9904 8.19068 12.3409 6.84068C13.3545 5.8271 13.8104 4.81621 13.8293 4.77369C13.8538 4.71862 13.8664 4.65902 13.8664 4.59875C13.8664 4.53848 13.8538 4.47888 13.8293 4.42381ZM7.40708 8.04319C5.75026 8.04319 4.30283 7.44086 3.10463 6.25342C2.61299 5.76449 2.19472 5.20698 1.86282 4.59821C2.19463 3.98939 2.61291 3.43186 3.10463 2.94301C4.30283 1.75557 5.75026 1.15324 7.40708 1.15324C9.0639 1.15324 10.5113 1.75557 11.7095 2.94301C12.2021 3.43174 12.6213 3.98927 12.954 4.59821C12.5659 5.32273 10.8752 8.04319 7.40708 8.04319ZM7.40708 2.01448C6.89607 2.01448 6.39653 2.16601 5.97164 2.44992C5.54675 2.73382 5.21558 3.13735 5.02002 3.60946C4.82447 4.08158 4.7733 4.60108 4.873 5.10227C4.97269 5.60347 5.21877 6.06385 5.58011 6.42519C5.94145 6.78653 6.40183 7.03261 6.90302 7.1323C7.40422 7.23199 7.92372 7.18083 8.39584 6.98527C8.86795 6.78971 9.27148 6.45855 9.55538 6.03366C9.83928 5.60876 9.99082 5.10923 9.99082 4.59821C9.99011 3.91318 9.71766 3.25641 9.23327 2.77202C8.74888 2.28764 8.09211 2.01519 7.40708 2.01448ZM7.40708 6.3207C7.06641 6.3207 6.73338 6.21968 6.45012 6.03041C6.16686 5.84114 5.94608 5.57212 5.81571 5.25738C5.68534 4.94264 5.65123 4.5963 5.71769 4.26217C5.78415 3.92804 5.9482 3.62112 6.1891 3.38023C6.42999 3.13933 6.73691 2.97528 7.07104 2.90882C7.40517 2.84236 7.75151 2.87647 8.06625 3.00684C8.381 3.13721 8.65001 3.35799 8.83928 3.64125C9.02855 3.92451 9.12957 4.25754 9.12957 4.59821C9.12957 5.05504 8.9481 5.49317 8.62507 5.8162C8.30204 6.13922 7.86392 6.3207 7.40708 6.3207Z" fill="#7D858B"/>
</g>
</svg>
